<svg width="50" height="50" viewBox="0 0 50 50" fill="none" xmlns="http://www.w3.org/2000/svg">
<path d="M8.46195 27.0835C8.37684 26.401 8.33301 25.7058 8.33301 25.0002C8.33301 15.7954 15.7949 8.3335 24.9997 8.3335C30.2093 8.3335 34.8605 10.7236 37.9168 14.4672M37.9168 14.4672V8.3335M37.9168 14.4672V14.5833L31.6668 14.5835M41.5374 22.9168C41.6226 23.5993 41.6663 24.2945 41.6663 25.0002C41.6663 34.205 34.2045 41.6668 24.9997 41.6668C20.0218 41.6668 15.5536 39.4845 12.4997 36.0243M12.4997 36.0243V35.4168H18.7497M12.4997 36.0243V41.6668" stroke="#050505" stroke-width="1.5" stroke-linecap="round" stroke-linejoin="round"/>
<path d="M15.375 30.5H34.625M15.375 19.5H34.625M14 25H36M14 25C14 31.0752 18.9249 36 25 36M14 25C14 18.9249 18.9249 14 25 14M36 25C36 31.0752 31.0752 36 25 36M36 25C36 18.9249 31.0752 14 25 14M25 36C25 36 18.8125 33.25 18.8125 25C18.8125 16.75 25 14 25 14M25 36C25 36 31.1875 33.25 31.1875 25C31.1875 16.75 25 14 25 14M25 36V14" stroke="#050505" stroke-width="1.5"/>
<path d="M41.1835 22.7164C40.8542 22.3569 41.5369 19.9885 37.5287 18.3723C36.8696 18.4919 36.1286 21.8229 40.0233 22.8419C41.1875 23.4238 41.0041 24.394 41.0041 24.9332H41.753C41.753 24.9332 41.4466 23.2227 42.815 22.5959C43.7461 22.1696 46.3175 22.0328 46.9999 18.1907C45.6989 17.4384 41.0785 18.9048 41.1835 22.7164ZM40.239 22.0683C40.1596 22.1232 40.0507 22.1034 39.9958 22.024C39.6146 21.4719 38.5605 20.1981 38.0945 19.7334C38.0262 19.6653 38.0262 19.5545 38.0945 19.4865C38.1626 19.4181 38.2734 19.4181 38.3414 19.4865C38.8364 19.9824 39.8783 21.2415 40.2833 21.825C40.3382 21.9044 40.3184 22.0133 40.239 22.0683ZM45.1243 19.2335C43.8498 20.0388 42.8083 21.3789 42.3386 22.1067C42.2864 22.1876 42.1781 22.2108 42.0972 22.1586C42.0163 22.1061 41.9932 21.998 42.0456 21.9169C42.5367 21.1597 43.5914 19.7925 44.9372 18.9384C45.0187 18.8865 45.1264 18.9109 45.1783 18.9924C45.2299 19.0739 45.2057 19.1816 45.1243 19.2335Z" fill="#050505"/>
<path d="M13.4 7.4H14C13.9989 9.15009 13.3032 10.8282 12.0657 12.0657C10.8282 13.3032 9.15009 13.9989 7.4 14V13.4C8.99052 13.3975 10.5152 12.7645 11.6398 11.6398C12.7645 10.5152 13.3975 8.99052 13.4 7.4ZM11 7.4H11.6C11.5987 8.51352 11.1558 9.58107 10.3684 10.3684C9.58107 11.1558 8.51352 11.5987 7.4 11.6V11C8.35454 10.9992 9.26975 10.6197 9.94471 9.94471C10.6197 9.26975 10.9992 8.35454 11 7.4ZM2 10.574L4.7 7.874L5.3 8.474L6.074 7.7L4.874 6.5L6.5 4.874L7.7 6.074L8.474 5.3L7.874 4.7L10.574 2H10.826L12.326 3.5L9.5 6.326L8.9 5.726L8.126 6.5L9.326 7.7L7.7 9.326L6.5 8.126L5.726 8.9L6.326 9.5L3.5 12.326L2 10.826V10.574Z" fill="#050505"/>
</svg>
